<svg xmlns="http://www.w3.org/2000/svg" xmlns:xlink="http://www.w3.org/1999/xlink" version="1.1" width="256" height="256" viewBox="0 0 256 256" xml:space="preserve">
<g style="stroke: none; stroke-width: 0; stroke-dasharray: none; stroke-linecap: butt; stroke-linejoin: miter; stroke-miterlimit: 10; fill: none; fill-rule: nonzero; opacity: 1;" transform="translate(1.4065934065934016 1.4065934065934016) scale(2.81 2.81)">
	<path d="M 83.098 90 H 55.359 c -1.104 0 -2 -0.896 -2 -2 s 0.896 -2 2 -2 h 27.738 C 84.698 86 86 84.698 86 83.098 V 55.359 c 0 -1.104 0.896 -2 2 -2 s 2 0.896 2 2 v 27.738 C 90 86.903 86.903 90 83.098 90 z" style="stroke: none; stroke-width: 1; stroke-dasharray: none; stroke-linecap: butt; stroke-linejoin: miter; stroke-miterlimit: 10; fill: rgb(94,94,94); fill-rule: nonzero; opacity: 1;" transform=" matrix(1 0 0 1 0 0) " stroke-linecap="round"/>
	<path d="M 34.641 90 H 6.902 C 3.096 90 0 86.903 0 83.098 V 55.359 c 0 -1.104 0.896 -2 2 -2 s 2 0.896 2 2 v 27.738 C 4 84.698 5.302 86 6.902 86 h 27.739 c 1.104 0 2 0.896 2 2 S 35.746 90 34.641 90 z" style="stroke: none; stroke-width: 1; stroke-dasharray: none; stroke-linecap: butt; stroke-linejoin: miter; stroke-miterlimit: 10; fill: rgb(94,94,94); fill-rule: nonzero; opacity: 1;" transform=" matrix(1 0 0 1 0 0) " stroke-linecap="round"/>
	<path d="M 2 36.641 c -1.104 0 -2 -0.896 -2 -2 V 6.902 C 0 3.096 3.096 0 6.902 0 h 27.739 c 1.104 0 2 0.896 2 2 s -0.896 2 -2 2 H 6.902 C 5.302 4 4 5.302 4 6.902 v 27.739 C 4 35.746 3.104 36.641 2 36.641 z" style="stroke: none; stroke-width: 1; stroke-dasharray: none; stroke-linecap: butt; stroke-linejoin: miter; stroke-miterlimit: 10; fill: rgb(94,94,94); fill-rule: nonzero; opacity: 1;" transform=" matrix(1 0 0 1 0 0) " stroke-linecap="round"/>
	<path d="M 88 36.641 c -1.104 0 -2 -0.896 -2 -2 V 6.902 C 86 5.302 84.698 4 83.098 4 H 55.359 c -1.104 0 -2 -0.896 -2 -2 s 0.896 -2 2 -2 h 27.738 C 86.903 0 90 3.096 90 6.902 v 27.739 C 90 35.746 89.104 36.641 88 36.641 z" style="stroke: none; stroke-width: 1; stroke-dasharray: none; stroke-linecap: butt; stroke-linejoin: miter; stroke-miterlimit: 10; fill: rgb(94,94,94); fill-rule: nonzero; opacity: 1;" transform=" matrix(1 0 0 1 0 0) " stroke-linecap="round"/>
	<path d="M 80.61 52.756 H 9.39 c -1.104 0 -2 -0.896 -2 -2 s 0.896 -2 2 -2 H 80.61 c 1.104 0 2 0.896 2 2 S 81.715 52.756 80.61 52.756 z" style="stroke: none; stroke-width: 1; stroke-dasharray: none; stroke-linecap: butt; stroke-linejoin: miter; stroke-miterlimit: 10; fill: rgb(60,188,142); fill-rule: nonzero; opacity: 1;" transform=" matrix(1 0 0 1 0 0) " stroke-linecap="round"/>
	<path d="M 71.429 76.574 H 18.571 c -2.837 0 -5.146 -2.309 -5.146 -5.146 V 58.573 c 0 -1.104 0.896 -2 2 -2 h 59.149 c 1.104 0 2 0.896 2 2 v 12.855 C 76.574 74.266 74.266 76.574 71.429 76.574 z" style="stroke: none; stroke-width: 1; stroke-dasharray: none; stroke-linecap: butt; stroke-linejoin: miter; stroke-miterlimit: 10; fill: rgb(94,94,94); fill-rule: nonzero; opacity: 1;" transform=" matrix(1 0 0 1 0 0) " stroke-linecap="round"/>
	<path d="M 74.574 44.937 H 15.425 c -1.104 0 -2 -0.896 -2 -2 V 18.571 c 0 -2.837 2.308 -5.146 5.146 -5.146 h 52.858 c 2.837 0 5.146 2.308 5.146 5.146 v 24.366 C 76.574 44.042 75.679 44.937 74.574 44.937 z" style="stroke: none; stroke-width: 1; stroke-dasharray: none; stroke-linecap: butt; stroke-linejoin: miter; stroke-miterlimit: 10; fill: rgb(60,188,142); fill-rule: nonzero; opacity: 1;" transform=" matrix(1 0 0 1 0 0) " stroke-linecap="round"/>
</g>
</svg>